<svg viewBox="0 0 48 48" fill="currentColor" xmlns="http://www.w3.org/2000/svg">
  <path d="M22.3543 15.3412C21.3432 13.5074 7.77116 38.6163 6.2934 35.654C3.32737 29.7083 2.43736 17.5688 3.33178 18.9324C4.35624 20.4943 5.74891 22.553 7.88173 22.553C10.0146 22.553 26.7098 2.64567 29.5875 5.23179C32.4653 7.81791 20.1766 22.3002 25.0765 25.5446C26.8254 26.7026 33.1122 16.3045 36.0042 18.6796C38.0653 20.3724 36.8598 42.8481 33.0098 39.6977C30.4082 37.569 30.5598 28.5873 29.0043 28.1777C25.3876 27.2256 19.0488 42.519 15.9766 38.099C12.741 33.444 23.3654 17.175 22.3543 15.3412Z" />
  <circle cx="42" cy="37" r="3" />
</svg>
